<?xml version="1.0" encoding="UTF-8" standalone="no"?>
<svg width="87px" height="20px" viewBox="0 0 87 20" version="1.1" xmlns="http://www.w3.org/2000/svg" xmlns:xlink="http://www.w3.org/1999/xlink">
    <!-- Generator: Sketch 39.1 (31720) - http://www.bohemiancoding.com/sketch -->
    <title>Page 1</title>
    <desc>Created with Sketch.</desc>
    <defs>
        <path d="M-1.77635684e-14,3.47534876 C0.0167224387,3.0543103 0.36689902,2.7175 0.795625,2.7175 L3.15,2.7175 C3.296875,2.7175 3.415,2.599375 3.415,2.45375 L3.415,0.75375 C3.415,0.608125 3.534375,0.49 3.680625,0.49 L4.760625,0.49 C5.2,0.49 5.555625,0.84375 5.555625,1.28 L5.555625,2.45375 C5.555625,2.599375 5.675,2.7175 5.82125,2.7175 L8.753125,2.7175 C8.899375,2.7175 9.018125,2.835 9.018125,2.980625 L9.018125,4.053125 C9.018125,4.489375 8.661875,4.843125 8.223125,4.843125 L0.265,4.843125 C0.124893096,4.843125 0.00945088995,4.73528865 -8.8817842e-14,4.59764554 L0,3.47534876 L-1.77635684e-14,3.47534876 Z" id="path-1"></path>
        <path d="M3.680625,0.49 C3.534375,0.49 3.415,0.608125 3.415,0.75375 L3.415,2.45375 C3.415,2.599375 3.296875,2.7175 3.15,2.7175 L0.795625,2.7175 C0.365625,2.7175 0.015625,3.055625 0,3.47875 L0,4.596875 C0.009375,4.734375 0.124375,4.843125 0.265,4.843125 L8.223125,4.843125 C8.661875,4.843125 9.018125,4.489375 9.018125,4.053125 L9.018125,2.980625 C9.018125,2.835 8.899375,2.7175 8.753125,2.7175 L5.82125,2.7175 C5.675,2.7175 5.555625,2.599375 5.555625,2.45375 L5.555625,1.28 C5.555625,0.84375 5.2,0.49 4.760625,0.49 L3.680625,0.49 L3.680625,0.49 Z" id="path-3"></path>
        <path d="M2.210625,0.03 L0.604375,0.126875 C0.458125,0.135625 0.346875,0.26 0.355625,0.405 L0.925625,10.013125 C0.934375,10.158125 1.060625,10.26875 1.20625,10.26 L2.813125,10.16375 C2.959375,10.154375 3.070625,10.03 3.061875,9.884375 L2.49125,0.276875 C2.483125,0.1375 2.36625,0.029375 2.2275,0.029375 C2.221875,0.029375 2.21625,0.03 2.210625,0.03 L2.210625,0.03 Z" id="path-5"></path>
        <path d="M2.210625,0.03 L0.604375,0.126875 C0.458125,0.135625 0.346875,0.26 0.355625,0.405 L0.925625,10.013125 C0.934375,10.158125 1.060625,10.26875 1.20625,10.26 L2.813125,10.16375 C2.959375,10.154375 3.070625,10.03 3.061875,9.884375 L2.49125,0.276875 C2.48375,0.1375 2.366875,0.029375 2.2275,0.029375 C2.221875,0.029375 2.21625,0.029375 2.210625,0.03 L2.210625,0.03 Z" id="path-7"></path>
        <path d="M0.761875,0.34125 L0.23125,9.8375 C0.223125,9.9825 0.335,10.1075 0.48125,10.115 L2.088125,10.20625 C2.234375,10.215 2.36,10.10375 2.368125,9.958125 L2.89875,0.461875 C2.9075,0.316875 2.795625,0.1925 2.649375,0.185 L1.041875,0.09375 C1.036875,0.093125 1.031875,0.093125 1.02625,0.093125 C0.886875,0.093125 0.77,0.20125 0.761875,0.34125 L0.761875,0.34125 Z" id="path-9"></path>
        <path d="M0.761875,0.34125 L0.23125,9.8375 C0.223125,9.9825 0.335,10.1075 0.48125,10.115 L2.088125,10.20625 C2.234375,10.215 2.36,10.10375 2.368125,9.958125 L2.89875,0.461875 C2.9075,0.316875 2.795625,0.1925 2.649375,0.185 L1.041875,0.09375 C1.036875,0.093125 1.03125,0.093125 1.02625,0.093125 C0.886875,0.093125 0.77,0.20125 0.761875,0.34125 L0.761875,0.34125 Z" id="path-11"></path>
        <path d="M0.795,0.041875 C0.355625,0.041875 0,0.395625 0,0.831875 L0,1.904375 C0,2.05 0.118125,2.1675 0.265,2.1675 L8.0825,2.1675 C8.521875,2.1675 8.878125,1.814375 8.878125,1.378125 L8.878125,0.305 C8.878125,0.16 8.759375,0.041875 8.613125,0.041875 L0.795,0.041875 L0.795,0.041875 Z" id="path-13"></path>
        <path d="M4.20375,0.221875 C4.056875,0.221875 3.93875,0.34 3.93875,0.485 L3.93875,8.639375 C3.93875,8.785 3.820625,8.9025 3.67375,8.9025 L1.908125,8.9025 C1.03,8.9025 0.3175,9.61 0.3175,10.4825 L0.3175,18.61 C0.3175,18.755 0.435625,18.873125 0.5825,18.873125 L8.753125,18.873125 C9.63125,18.873125 10.344375,18.165625 10.344375,17.293125 L10.344375,9.165625 C10.344375,9.02 10.225625,8.9025 10.07875,8.9025 L6.344375,8.9025 C6.1975,8.9025 6.079375,8.785 6.079375,8.639375 L6.079375,5.218125 C6.079375,5.0725 6.1975,4.955 6.344375,4.955 L9.6575,4.955 C10.096875,4.955 10.4525,4.600625 10.4525,4.164375 L10.4525,3.091875 C10.4525,2.946875 10.334375,2.82875 10.1875,2.82875 L6.344375,2.82875 C6.1975,2.82875 6.079375,2.710625 6.079375,2.565 L6.079375,1.0125 C6.079375,0.57625 5.723125,0.221875 5.28375,0.221875 L4.20375,0.221875 L4.20375,0.221875 Z M2.4575,16.484375 L2.4575,11.29125 C2.4575,11.14625 2.57625,11.028125 2.723125,11.028125 L7.93875,11.028125 C8.085,11.028125 8.20375,11.14625 8.20375,11.29125 L8.20375,16.484375 C8.20375,16.63 8.085,16.7475 7.93875,16.7475 L2.723125,16.7475 C2.57625,16.7475 2.4575,16.63 2.4575,16.484375 L2.4575,16.484375 Z" id="path-15"></path>
        <path d="M1.09125,0.27 C0.651875,0.27 0.295625,0.62375 0.295625,1.06 L0.295625,2.1325 C0.295625,2.278125 0.414375,2.395625 0.56125,2.395625 L1.9975,2.395625 C2.144375,2.395625 2.263125,2.51375 2.263125,2.659375 L2.263125,4.116875 C2.263125,4.2625 2.144375,4.380625 1.9975,4.380625 L0.56125,4.380625 C0.414375,4.380625 0.295625,4.498125 0.295625,4.64375 L0.295625,6.50625 L0.3,6.50625 L0.3,16.173125 L0.295625,16.173125 L0.295625,18.035625 C0.295625,18.18125 0.414375,18.29875 0.56125,18.29875 L9.563125,18.29875 C9.709375,18.29875 9.828125,18.18125 9.828125,18.035625 L9.828125,16.173125 L9.823125,16.173125 L9.823125,6.50625 L9.828125,6.50625 L9.828125,4.64375 C9.828125,4.498125 9.709375,4.380625 9.563125,4.380625 L8.0325,4.380625 C7.88625,4.380625 7.768125,4.2625 7.768125,4.116875 L7.768125,2.659375 C7.768125,2.51375 7.88625,2.395625 8.0325,2.395625 L9.033125,2.395625 C9.4725,2.395625 9.828125,2.041875 9.828125,1.60625 L9.828125,0.53375 C9.828125,0.388125 9.709375,0.27 9.563125,0.27 L1.09125,0.27 L1.09125,0.27 Z M4.40375,4.116875 L4.40375,2.659375 C4.40375,2.51375 4.521875,2.395625 4.66875,2.395625 L5.3625,2.395625 C5.50875,2.395625 5.6275,2.51375 5.6275,2.659375 L5.6275,4.116875 C5.6275,4.2625 5.50875,4.380625 5.3625,4.380625 L4.66875,4.380625 C4.521875,4.380625 4.40375,4.2625 4.40375,4.116875 L4.40375,4.116875 Z M6.9475,10.575625 L6.9475,6.769375 C6.9475,6.62375 7.06625,6.50625 7.2125,6.50625 L7.418125,6.50625 C7.565,6.50625 7.683125,6.62375 7.683125,6.769375 L7.683125,10.575625 C7.683125,10.72125 7.565,10.83875 7.418125,10.83875 L7.2125,10.83875 C7.06625,10.83875 6.9475,10.72125 6.9475,10.575625 L6.9475,10.575625 Z M3.951875,12.986875 C4.6925,12.00875 4.71,11.073125 4.705,10.876875 L4.705,6.769375 C4.705,6.62375 4.823125,6.50625 4.97,6.50625 L5.15375,6.50625 C5.3,6.50625 5.419375,6.62375 5.419375,6.769375 L5.419375,12.09375 C5.419375,12.239375 5.5375,12.3575 5.684375,12.3575 L7.418125,12.3575 C7.565,12.3575 7.683125,12.475625 7.683125,12.620625 L7.683125,13.2475 C7.683125,13.393125 7.565,13.51125 7.418125,13.51125 L2.705625,13.51125 C2.559375,13.51125 2.440625,13.393125 2.440625,13.2475 L2.440625,6.769375 C2.440625,6.62375 2.559375,6.50625 2.705625,6.50625 L2.910625,6.50625 C3.0575,6.50625 3.17625,6.62375 3.17625,6.769375 L3.17625,10.91625 C3.176875,10.94 3.180625,11.450625 2.763125,12.0275 C2.684375,12.1375 2.7025,12.29 2.805625,12.37875 L3.5625,13.03 C3.6125,13.073125 3.674375,13.09375 3.735625,13.09375 C3.816875,13.09375 3.89875,13.056875 3.951875,12.986875 L3.951875,12.986875 Z M2.440625,15.91 L2.440625,15.37375 C2.440625,15.228125 2.559375,15.110625 2.705625,15.110625 L7.418125,15.110625 C7.565,15.110625 7.683125,15.228125 7.683125,15.37375 L7.683125,15.91 C7.683125,16.055625 7.565,16.173125 7.418125,16.173125 L2.705625,16.173125 C2.559375,16.173125 2.440625,16.055625 2.440625,15.91 L2.440625,15.91 Z" id="path-17"></path>
        <path d="M1.09125,0.27 C0.651875,0.27 0.295625,0.62375 0.295625,1.06 L0.295625,2.1325 C0.295625,2.278125 0.414375,2.395625 0.56125,2.395625 L1.9975,2.395625 C2.144375,2.395625 2.263125,2.51375 2.263125,2.659375 L2.263125,4.116875 C2.263125,4.2625 2.144375,4.380625 1.9975,4.380625 L0.56125,4.380625 C0.414375,4.380625 0.295625,4.498125 0.295625,4.64375 L0.295625,6.50625 L0.3,6.50625 L0.3,16.173125 L0.295625,16.173125 L0.295625,18.035625 C0.295625,18.18125 0.414375,18.29875 0.56125,18.29875 L9.563125,18.29875 C9.709375,18.29875 9.828125,18.18125 9.828125,18.035625 L9.828125,16.173125 L9.823125,16.173125 L9.823125,6.50625 L9.828125,6.50625 L9.828125,4.64375 C9.828125,4.498125 9.709375,4.380625 9.563125,4.380625 L8.0325,4.380625 C7.88625,4.380625 7.768125,4.2625 7.768125,4.116875 L7.768125,2.659375 C7.768125,2.51375 7.88625,2.395625 8.0325,2.395625 L9.033125,2.395625 C9.4725,2.395625 9.828125,2.041875 9.828125,1.60625 L9.828125,0.53375 C9.828125,0.388125 9.709375,0.27 9.563125,0.27 L1.09125,0.27 L1.09125,0.27 Z M4.40375,4.116875 L4.40375,2.659375 C4.40375,2.51375 4.521875,2.395625 4.66875,2.395625 L5.3625,2.395625 C5.50875,2.395625 5.6275,2.51375 5.6275,2.659375 L5.6275,4.116875 C5.6275,4.2625 5.50875,4.380625 5.3625,4.380625 L4.66875,4.380625 C4.521875,4.380625 4.40375,4.2625 4.40375,4.116875 L4.40375,4.116875 Z M6.9475,10.575625 L6.9475,6.769375 C6.9475,6.62375 7.06625,6.50625 7.2125,6.50625 L7.418125,6.50625 C7.565,6.50625 7.683125,6.62375 7.683125,6.769375 L7.683125,10.575625 C7.683125,10.72125 7.565,10.83875 7.418125,10.83875 L7.2125,10.83875 C7.06625,10.83875 6.9475,10.72125 6.9475,10.575625 L6.9475,10.575625 Z M3.951875,12.986875 C4.6925,12.00875 4.71,11.073125 4.705,10.876875 L4.705,6.769375 C4.705,6.62375 4.823125,6.50625 4.97,6.50625 L5.15375,6.50625 C5.3,6.50625 5.419375,6.62375 5.419375,6.769375 L5.419375,12.09375 C5.419375,12.239375 5.5375,12.3575 5.684375,12.3575 L7.418125,12.3575 C7.565,12.3575 7.683125,12.475625 7.683125,12.620625 L7.683125,13.2475 C7.683125,13.393125 7.565,13.51125 7.418125,13.51125 L2.705625,13.51125 C2.559375,13.51125 2.440625,13.393125 2.440625,13.2475 L2.440625,6.769375 C2.440625,6.62375 2.559375,6.50625 2.705625,6.50625 L2.910625,6.50625 C3.0575,6.50625 3.17625,6.62375 3.17625,6.769375 L3.17625,10.91625 C3.176875,10.94 3.180625,11.450625 2.763125,12.0275 C2.684375,12.1375 2.7025,12.29 2.805625,12.37875 L3.5625,13.03 C3.6125,13.073125 3.67375,13.09375 3.735625,13.09375 C3.816875,13.09375 3.898125,13.056875 3.951875,12.986875 L3.951875,12.986875 Z M2.440625,15.91 L2.440625,15.37375 C2.440625,15.228125 2.559375,15.110625 2.705625,15.110625 L7.418125,15.110625 C7.565,15.110625 7.683125,15.228125 7.683125,15.37375 L7.683125,15.91 C7.683125,16.055625 7.565,16.173125 7.418125,16.173125 L2.705625,16.173125 C2.559375,16.173125 2.440625,16.055625 2.440625,15.91 L2.440625,15.91 Z" id="path-19"></path>
        <path d="M0.2625,1.6025 L0.2625,7.945 C0.2625,8.09 0.38125,8.208125 0.5275,8.208125 L1.305625,8.208125 L2.4025,8.208125 L7.358125,8.208125 L7.908125,8.208125 C8.78625,8.208125 9.49875,7.500625 9.49875,6.6275 L9.49875,6.081875 L9.49875,2.165 L9.49875,0.301875 C9.49875,0.156875 9.38,0.03875 9.23375,0.03875 L7.358125,0.03875 L2.4025,0.03875 L1.835625,0.03875 C1.835625,0.03875 1.76125,0.026875 1.644375,0.026875 C1.225,0.026875 0.2625,0.18125 0.2625,1.6025 L0.2625,1.6025 Z M2.4025,5.81875 L2.4025,2.428125 C2.4025,2.2825 2.52125,2.165 2.6675,2.165 L7.09375,2.165 C7.24,2.165 7.358125,2.2825 7.358125,2.428125 L7.358125,5.81875 C7.358125,5.964375 7.24,6.081875 7.09375,6.081875 L2.6675,6.081875 C2.52125,6.081875 2.4025,5.964375 2.4025,5.81875 L2.4025,5.81875 Z" id="path-21"></path>
        <path d="M0.2625,1.6025 L0.2625,7.945 C0.2625,8.09 0.38125,8.208125 0.5275,8.208125 L1.305625,8.208125 L2.4025,8.208125 L7.358125,8.208125 L7.908125,8.208125 C8.78625,8.208125 9.49875,7.500625 9.49875,6.6275 L9.49875,6.081875 L9.49875,2.165 L9.49875,0.301875 C9.49875,0.156875 9.38,0.03875 9.23375,0.03875 L7.358125,0.03875 L2.4025,0.03875 L1.835625,0.03875 C1.835625,0.03875 1.76125,0.026875 1.64375,0.026875 C1.225,0.026875 0.2625,0.18125 0.2625,1.6025 L0.2625,1.6025 Z M2.4025,5.81875 L2.4025,2.428125 C2.4025,2.2825 2.52125,2.165 2.6675,2.165 L7.09375,2.165 C7.24,2.165 7.358125,2.2825 7.358125,2.428125 L7.358125,5.81875 C7.358125,5.964375 7.24,6.081875 7.09375,6.081875 L2.6675,6.081875 C2.52125,6.081875 2.4025,5.964375 2.4025,5.81875 L2.4025,5.81875 Z" id="path-23"></path>
        <path d="M4.864375,0.2475 C4.7175,0.2475 4.59875,0.365625 4.59875,0.51125 L4.59875,2.00875 C4.59875,2.154375 4.480625,2.2725 4.33375,2.2725 L3.443125,2.2725 C3.289375,2.2725 3.168125,2.141875 3.17875,1.99 C3.19,1.8225 3.199375,1.669375 3.206875,1.5325 C3.23,1.080625 2.868125,0.703125 2.411875,0.703125 L1.35375,0.703125 C1.210625,0.703125 1.09375,0.814375 1.089375,0.95625 C1.06875,1.6275 0.96625,3.583125 0.46375,6.211875 C0.436875,6.354375 0.529375,6.493125 0.6725,6.520625 L1.725625,6.726875 C2.16125,6.811875 2.585,6.525 2.661875,6.090625 C2.755,5.571875 2.8325,5.08125 2.8975,4.623125 C2.915625,4.493125 3.0275,4.398125 3.159375,4.398125 L4.33375,4.398125 C4.480625,4.398125 4.59875,4.515625 4.59875,4.66125 L4.59875,7.273125 C4.59875,7.418125 4.480625,7.53625 4.33375,7.53625 L1.574375,7.53625 C1.135,7.53625 0.77875,7.889375 0.77875,8.325625 L0.77875,9.39875 C0.77875,9.54375 0.8975,9.661875 1.04375,9.661875 L9.421875,9.661875 C9.86125,9.661875 10.216875,9.308125 10.216875,8.87125 L10.216875,7.799375 C10.216875,7.65375 10.09875,7.53625 9.951875,7.53625 L7.004375,7.53625 C6.858125,7.53625 6.739375,7.418125 6.739375,7.273125 L6.739375,4.66125 C6.739375,4.515625 6.858125,4.398125 7.004375,4.398125 L9.313125,4.398125 C9.751875,4.398125 10.10875,4.044375 10.10875,3.608125 L10.10875,2.535625 C10.10875,2.390625 9.99,2.2725 9.843125,2.2725 L7.004375,2.2725 C6.858125,2.2725 6.739375,2.154375 6.739375,2.00875 L6.739375,0.51125 C6.739375,0.365625 6.620625,0.2475 6.474375,0.2475 L4.864375,0.2475 L4.864375,0.2475 Z" id="path-25"></path>
        <path d="M1.2125,0.61375 L0.516875,1.481875 C0.26,1.80125 0.29,2.2625 0.588125,2.54375 C1.0875,3.015 1.861875,3.814375 2.594375,4.855 C2.6775,4.973125 2.84,5.005625 2.96,4.925625 L3.841875,4.3375 C4.22125,4.084375 4.30625,3.566875 4.033125,3.20375 C3.023125,1.8625 2.0175,0.9425 1.591875,0.576875 C1.541875,0.53375 1.48125,0.513125 1.420625,0.513125 C1.3425,0.513125 1.265,0.5475 1.2125,0.61375 L1.2125,0.61375 Z" id="path-27"></path>
        <path d="M1.2125,0.61375 L0.516875,1.481875 C0.26,1.80125 0.29,2.2625 0.588125,2.54375 C1.0875,3.015 1.861875,3.814375 2.594375,4.855 C2.6775,4.973125 2.84,5.005625 2.96,4.925625 L3.841875,4.3375 C4.22125,4.084375 4.30625,3.566875 4.033125,3.20375 C3.023125,1.8625 2.0175,0.9425 1.591875,0.576875 C1.541875,0.534375 1.480625,0.513125 1.420625,0.513125 C1.3425,0.513125 1.265,0.5475 1.2125,0.61375 L1.2125,0.61375 Z" id="path-29"></path>
        <path d="M1.306875,0.28875 L0.564375,1.08125 C0.270625,1.395625 0.28125,1.884375 0.59,2.18375 C1.195625,2.770625 2.20375,3.776875 3.164375,4.868125 C3.26,4.9775 3.42625,4.989375 3.5375,4.895 L4.349375,4.200625 C4.688125,3.910625 4.719375,3.401875 4.42125,3.07125 C3.261875,1.789375 2.128125,0.698125 1.683125,0.2775 C1.631875,0.22875 1.56625,0.205 1.500625,0.205 C1.43,0.205 1.359375,0.233125 1.306875,0.28875 L1.306875,0.28875 Z" id="path-31"></path>
        <path d="M1.306875,0.28875 L0.564375,1.08125 C0.270625,1.395625 0.28125,1.884375 0.59,2.18375 C1.195625,2.770625 2.20375,3.776875 3.164375,4.868125 C3.26,4.9775 3.42625,4.989375 3.5375,4.895 L4.349375,4.200625 C4.688125,3.910625 4.719375,3.401875 4.42125,3.07125 C3.261875,1.789375 2.128125,0.698125 1.683125,0.2775 C1.631875,0.229375 1.56625,0.205 1.50125,0.205 C1.43,0.205 1.359375,0.233125 1.306875,0.28875 L1.306875,0.28875 Z" id="path-33"></path>
        <path d="M2.19125,0.998125 C1.935,2.133125 1.308125,4.429375 0.06,6.634375 C-0.01125,6.76 0.03,6.91875 0.155625,6.99125 L1.075,7.52375 C1.465,7.75 1.96875,7.609375 2.18,7.211875 C3.648125,4.444375 4.24375,1.721875 4.405,0.87 C4.4325,0.7225 4.334375,0.584375 4.185625,0.56125 L3.090625,0.39125 C3.04875,0.384375 3.00625,0.38125 2.965,0.38125 C2.59875,0.38125 2.274375,0.6325 2.19125,0.998125 L2.19125,0.998125 Z" id="path-35"></path>
        <path d="M2.19125,0.998125 C1.935,2.133125 1.308125,4.429375 0.06,6.634375 C-0.01125,6.76 0.03,6.91875 0.155625,6.99125 L1.075,7.52375 C1.465,7.75 1.96875,7.609375 2.18,7.211875 C3.648125,4.444375 4.24375,1.721875 4.405,0.87 C4.4325,0.7225 4.334375,0.584375 4.185625,0.56125 L3.090625,0.39125 C3.04875,0.384375 3.00625,0.38125 2.964375,0.38125 C2.599375,0.38125 2.27375,0.6325 2.19125,0.998125 L2.19125,0.998125 Z" id="path-37"></path>
        <path d="M12.21375,0.3525 L11.334375,0.3525 L2.296875,0.3525 L1.86375,0.3525 L1.7475,0.3525 C0.86875,0.3525 0.156875,1.06 0.156875,1.9325 L0.156875,8.146875 L0.20125,8.146875 L0.20125,8.208125 L11.88375,8.208125 C12.761875,8.208125 13.474375,7.500625 13.474375,6.6275 L13.474375,6.081875 L13.474375,0.615625 C13.474375,0.470625 13.355,0.3525 13.209375,0.3525 L12.21375,0.3525 L12.21375,0.3525 Z M2.296875,5.81875 L2.296875,2.741875 C2.296875,2.59625 2.415,2.47875 2.561875,2.47875 L11.069375,2.47875 C11.215,2.47875 11.334375,2.59625 11.334375,2.741875 L11.334375,5.81875 C11.334375,5.964375 11.215,6.081875 11.069375,6.081875 L2.561875,6.081875 C2.415,6.081875 2.296875,5.964375 2.296875,5.81875 L2.296875,5.81875 Z" id="path-39"></path>
        <path d="M3.92625,0.539375 C3.534375,1.291875 2.17875,3.75375 0.360625,5.416875 C0.255,5.51375 0.243125,5.675 0.338125,5.783125 L1.161875,6.72125 C1.39125,6.983125 1.79625,6.999375 2.046875,6.756875 L2.053125,6.75125 C2.139375,6.666875 2.27125,6.65125 2.37375,6.715625 C2.87625,7.03125 3.59875,7.46 4.503125,7.93 C4.71875,8.04125 4.688125,8.35875 4.454375,8.421875 C3.468125,8.68875 2.3575,8.899375 1.10625,9.025625 C0.961875,9.040625 0.85375,9.166875 0.8675,9.310625 L0.964375,10.368125 C1.005,10.811875 1.40875,11.135625 1.854375,11.08125 C4.264375,10.78625 6.21125,10.199375 7.775625,9.485625 C7.836875,9.458125 7.904375,9.45625 7.966875,9.479375 C9.926875,10.21875 12.225,10.858125 14.6975,11.104375 C15.146875,11.14875 15.545625,10.813125 15.57375,10.365625 L15.64,9.308125 C15.649375,9.164375 15.539375,9.04125 15.395,9.030625 C13.781875,8.909375 12.23125,8.590625 10.8025,8.175 C10.5975,8.115625 10.54875,7.84875 10.716875,7.7175 C12.885,6.016875 13.625625,4.321875 13.68125,4.19125 L13.7625,3.995 L13.7625,2.7 C13.7625,2.26375 13.406875,1.91 12.9675,1.91 L6.058125,1.91 C5.859375,1.91 5.731875,1.7 5.823125,1.525 C5.833125,1.50625 5.841875,1.488125 5.85125,1.470625 C5.91875,1.339375 5.8625,1.178125 5.72875,1.115 L4.275625,0.42375 C4.238125,0.40625 4.19875,0.398125 4.16,0.398125 C4.064375,0.398125 3.973125,0.449375 3.92625,0.539375 L3.92625,0.539375 Z M7.66625,7.055 C6.031875,6.363125 4.715625,5.6375 3.87125,5.130625 C3.73625,5.05 3.705625,4.8725 3.79875,4.7475 C3.95,4.545625 4.094375,4.345 4.231875,4.148125 C4.281875,4.0775 4.36125,4.035625 4.44875,4.035625 L10.801875,4.035625 C11.021875,4.035625 11.14875,4.286875 11.013125,4.459375 C10.441875,5.186875 9.466875,6.165625 7.905,7.041875 C7.864375,7.064375 7.81875,7.075625 7.7725,7.075625 C7.73625,7.075625 7.7,7.06875 7.66625,7.055 L7.66625,7.055 Z" id="path-41"></path>
        <path d="M3.92625,0.539375 C3.534375,1.291875 2.17875,3.75375 0.360625,5.416875 C0.255,5.51375 0.243125,5.675 0.338125,5.783125 L1.161875,6.72125 C1.39125,6.983125 1.79625,6.999375 2.046875,6.756875 L2.053125,6.75125 C2.139375,6.666875 2.27125,6.65125 2.37375,6.715625 C2.87625,7.03125 3.59875,7.46 4.503125,7.93 C4.71875,8.04125 4.688125,8.35875 4.454375,8.421875 C3.468125,8.68875 2.3575,8.899375 1.10625,9.025625 C0.961875,9.040625 0.85375,9.166875 0.8675,9.310625 L0.964375,10.368125 C1.005,10.811875 1.40875,11.135625 1.854375,11.08125 C4.264375,10.78625 6.21125,10.199375 7.775625,9.485625 C7.836875,9.458125 7.904375,9.45625 7.966875,9.479375 C9.926875,10.21875 12.225,10.858125 14.6975,11.104375 C15.146875,11.14875 15.545625,10.813125 15.57375,10.365625 L15.64,9.308125 C15.649375,9.164375 15.539375,9.04125 15.395,9.030625 C13.781875,8.909375 12.23125,8.590625 10.8025,8.175 C10.5975,8.115625 10.54875,7.84875 10.716875,7.7175 C12.885,6.016875 13.625625,4.321875 13.68125,4.19125 L13.7625,3.995 L13.7625,2.7 C13.7625,2.26375 13.406875,1.91 12.9675,1.91 L6.058125,1.91 C5.859375,1.91 5.731875,1.7 5.823125,1.525 C5.833125,1.50625 5.841875,1.488125 5.85125,1.470625 C5.91875,1.339375 5.8625,1.178125 5.72875,1.115 L4.275625,0.42375 C4.238125,0.40625 4.19875,0.398125 4.16,0.398125 C4.064375,0.398125 3.973125,0.449375 3.92625,0.539375 L3.92625,0.539375 Z M7.66625,7.055 C6.031875,6.363125 4.715625,5.6375 3.87125,5.130625 C3.73625,5.05 3.705625,4.8725 3.79875,4.7475 C3.95,4.545625 4.094375,4.345 4.231875,4.148125 C4.281875,4.0775 4.36125,4.035625 4.44875,4.035625 L10.801875,4.035625 C11.021875,4.035625 11.14875,4.286875 11.013125,4.459375 C10.441875,5.186875 9.466875,6.165625 7.905,7.041875 C7.865,7.064375 7.81875,7.07625 7.7725,7.07625 C7.73625,7.07625 7.7,7.06875 7.66625,7.055 L7.66625,7.055 Z" id="path-43"></path>
        <path d="M1.07375,0.61375 L0.37875,1.4825 C0.123125,1.801875 0.1525,2.263125 0.45125,2.54375 C0.94875,3.0125 1.719375,3.80875 2.455625,4.855 C2.538125,4.973125 2.7,5.005625 2.82125,4.925625 L3.7025,4.3375 C4.0825,4.084375 4.1675,3.566875 3.89375,3.203125 C2.884375,1.8625 1.879375,0.9425 1.4525,0.576875 C1.4025,0.534375 1.341875,0.513125 1.28125,0.513125 C1.20375,0.513125 1.12625,0.5475 1.07375,0.61375 L1.07375,0.61375 Z" id="path-45"></path>
        <path d="M1.07375,0.61375 L0.37875,1.4825 C0.123125,1.801875 0.1525,2.263125 0.45125,2.54375 C0.94875,3.0125 1.719375,3.80875 2.455625,4.855 C2.538125,4.973125 2.7,5.005625 2.82125,4.925625 L3.7025,4.3375 C4.0825,4.084375 4.1675,3.566875 3.89375,3.203125 C2.884375,1.8625 1.879375,0.9425 1.4525,0.576875 C1.4025,0.534375 1.341875,0.513125 1.281875,0.513125 C1.20375,0.513125 1.125625,0.5475 1.07375,0.61375 L1.07375,0.61375 Z" id="path-47"></path>
        <path d="M1.168125,0.28875 L0.425625,1.081875 C0.13125,1.395625 0.14125,1.884375 0.450625,2.183125 C1.05625,2.77 2.064375,3.776875 3.025,4.868125 C3.12125,4.9775 3.2875,4.989375 3.3975,4.895 L4.210625,4.200625 C4.549375,3.910625 4.58,3.401875 4.281875,3.07125 C3.121875,1.789375 1.989375,0.698125 1.544375,0.2775 C1.493125,0.22875 1.4275,0.205 1.361875,0.205 C1.290625,0.205 1.22,0.233125 1.168125,0.28875 L1.168125,0.28875 Z" id="path-49"></path>
        <path d="M1.168125,0.28875 L0.425625,1.081875 C0.13125,1.395625 0.14125,1.884375 0.450625,2.183125 C1.05625,2.77 2.064375,3.776875 3.025,4.868125 C3.12125,4.9775 3.2875,4.989375 3.3975,4.895 L4.210625,4.200625 C4.549375,3.910625 4.58,3.401875 4.281875,3.07125 C3.121875,1.789375 1.989375,0.698125 1.544375,0.2775 C1.493125,0.229375 1.4275,0.205 1.36125,0.205 C1.290625,0.205 1.22,0.233125 1.168125,0.28875 L1.168125,0.28875 Z" id="path-51"></path>
        <path d="M2.6775,0.998125 C2.420625,2.133125 1.794375,4.429375 0.54625,6.634375 C0.475,6.76 0.51625,6.91875 0.641875,6.99125 L1.560625,7.52375 C1.95125,7.75 2.455,7.609375 2.665625,7.211875 C4.134375,4.444375 4.73,1.721875 4.890625,0.87 C4.91875,0.7225 4.820625,0.584375 4.67125,0.56125 L3.57625,0.39125 C3.534375,0.384375 3.491875,0.38125 3.450625,0.38125 C3.085,0.38125 2.76,0.6325 2.6775,0.998125 L2.6775,0.998125 Z" id="path-53"></path>
        <path d="M2.6775,0.998125 C2.420625,2.133125 1.794375,4.429375 0.54625,6.634375 C0.475,6.76 0.51625,6.91875 0.641875,6.99125 L1.560625,7.52375 C1.95125,7.75 2.455,7.609375 2.665625,7.211875 C4.134375,4.444375 4.73,1.721875 4.890625,0.87 C4.91875,0.7225 4.820625,0.584375 4.67125,0.56125 L3.57625,0.39125 C3.53375,0.384375 3.4925,0.381875 3.450625,0.381875 C3.085,0.38125 2.76,0.6325 2.6775,0.998125 L2.6775,0.998125 Z" id="path-55"></path>
        <path d="M0.309375,0.398125 C0.163125,0.398125 0.045,0.515625 0.045,0.661875 L0.045,6.790625 C0.045,6.93625 0.163125,7.05375 0.309375,7.05375 L1.92,7.05375 C2.06625,7.05375 2.185,6.93625 2.185,6.790625 L2.185,0.661875 C2.185,0.515625 2.06625,0.398125 1.92,0.398125 L0.309375,0.398125 L0.309375,0.398125 Z" id="path-57"></path>
        <path d="M1.143125,0.95 C1.01,1.879375 0.77625,3.213125 0.485625,4 C0.43875,4.129375 0.5,4.27125 0.62625,4.3275 L1.5625,4.7475 C1.999375,4.943125 2.514375,4.714375 2.650625,4.25875 C2.70875,4.063125 2.763125,3.858125 2.815,3.64875 C2.84375,3.530625 2.949375,3.446875 3.0725,3.446875 L14.60875,3.446875 C15.048125,3.446875 15.40375,3.093125 15.40375,2.65625 L15.40375,1.58375 C15.40375,1.43875 15.285,1.320625 15.13875,1.320625 L3.556875,1.320625 C3.396875,1.320625 3.2725,1.18 3.294375,1.0225 C3.31125,0.895 3.32625,0.7825 3.3375,0.69 C3.355625,0.54375 3.25,0.411875 3.103125,0.395625 L2.0175,0.27625 C1.988125,0.273125 1.95875,0.271875 1.929375,0.271875 C1.53875,0.271875 1.199375,0.556875 1.143125,0.95 L1.143125,0.95 Z" id="path-59"></path>
        <path d="M1.143125,0.95 C1.01,1.879375 0.77625,3.213125 0.485625,4 C0.43875,4.129375 0.5,4.27125 0.62625,4.3275 L1.5625,4.7475 C1.999375,4.943125 2.514375,4.714375 2.650625,4.25875 C2.70875,4.063125 2.763125,3.858125 2.815,3.64875 C2.84375,3.530625 2.949375,3.446875 3.0725,3.446875 L14.60875,3.446875 C15.048125,3.446875 15.40375,3.093125 15.40375,2.65625 L15.40375,1.58375 C15.40375,1.43875 15.285,1.320625 15.13875,1.320625 L3.556875,1.320625 C3.396875,1.320625 3.2725,1.18 3.294375,1.0225 C3.31125,0.895 3.32625,0.7825 3.3375,0.69 C3.355625,0.54375 3.25,0.411875 3.103125,0.395625 L2.0175,0.27625 C1.9875,0.273125 1.95875,0.27125 1.929375,0.27125 C1.538125,0.27125 1.199375,0.556875 1.143125,0.95 L1.143125,0.95 Z" id="path-61"></path>
        <path d="M11.9425,0.515 L3.905625,0.515 L3.356875,0.515 C2.478125,0.515 1.76625,1.2225 1.76625,2.095 L1.76625,6.08625 C1.76625,6.231875 1.6475,6.349375 1.500625,6.349375 L0.7375,6.349375 C0.591875,6.349375 0.473125,6.4675 0.473125,6.613125 L0.473125,8.2125 C0.473125,8.3575 0.591875,8.475625 0.7375,8.475625 L1.500625,8.475625 C1.6475,8.475625 1.76625,8.593125 1.76625,8.73875 L1.76625,12.25625 L1.76625,12.8025 C1.76625,13.675 2.478125,14.381875 3.356875,14.381875 L10.90875,14.381875 C10.663125,13.998125 10.51875,13.544375 10.51875,13.055625 C10.51875,12.775625 10.5675,12.5075 10.65375,12.25625 L4.436875,12.25625 C4.14375,12.25625 3.905625,12.020625 3.905625,11.73 L3.905625,3.168125 C3.905625,2.87625 4.14375,2.640625 4.436875,2.640625 L11.4125,2.640625 C11.705625,2.640625 11.9425,2.87625 11.9425,3.168125 L11.9425,10.820625 C12.2675,10.666875 12.62875,10.578125 13.0125,10.578125 C13.39625,10.578125 13.758125,10.666875 14.083125,10.820625 L14.083125,8.73875 C14.083125,8.593125 14.20125,8.475625 14.348125,8.475625 L15.241875,8.475625 C15.388125,8.475625 15.5075,8.3575 15.5075,8.2125 L15.5075,6.613125 C15.5075,6.4675 15.388125,6.349375 15.241875,6.349375 L14.348125,6.349375 C14.20125,6.349375 14.083125,6.231875 14.083125,6.08625 L14.083125,2.640625 L14.083125,2.095 C14.083125,1.2225 13.370625,0.515 12.491875,0.515 L11.9425,0.515 L11.9425,0.515 Z" id="path-63"></path>
        <path d="M0.00625,1.80625 C0.00625,2.7725 0.794375,3.555625 1.7675,3.555625 C2.740625,3.555625 3.52875,2.7725 3.52875,1.80625 C3.52875,0.839375 2.740625,0.05625 1.7675,0.05625 C0.794375,0.05625 0.00625,0.839375 0.00625,1.80625 L0.00625,1.80625 Z" id="path-65"></path>
    </defs>
    <g id="Page-1" stroke="none" stroke-width="1" fill="none" fill-rule="evenodd">
        <g id="Desktop-HD" transform="translate(-457.000000, -726.000000)">
            <g id="Page-1" transform="translate(457.000000, 726.000000)">
                <path d="M4.7605,1.1153125 L3.6805,1.1153125 C3.53425,1.1153125 3.4155,1.2328125 3.4155,1.3784375 L3.4155,3.0790625 C3.4155,3.2246875 3.29675,3.3421875 3.1505,3.3421875 L0.7955,3.3421875 C0.356125,3.3421875 -0.000125,3.6959375 -0.000125,4.1321875 L-0.000125,5.2046875 C-0.000125,5.3503125 0.118625,5.4678125 0.264875,5.4678125 L8.223,5.4678125 C8.662375,5.4678125 9.018,5.1146875 9.018,4.6784375 L9.018,3.6053125 C9.018,3.4603125 8.899875,3.3421875 8.753,3.3421875 L5.821125,3.3421875 C5.674875,3.3421875 5.5555,3.2246875 5.5555,3.0790625 L5.5555,1.9053125 C5.5555,1.4690625 5.199875,1.1153125 4.7605,1.1153125" id="Fill-1" fill="#FFFFFF"></path>
                <g id="Group-5" transform="translate(0.000000, 0.625000)">
                    <mask id="mask-2" fill="white">
                        <use xlink:href="#path-1"></use>
                    </mask>
                    <g id="Clip-4"></g>
                    <polygon id="Fill-3" fill="#FFFFFF" mask="url(#mask-2)" points="0 5 9.375 5 9.375 0 0 0"></polygon>
                </g>
                <g id="Group-8" transform="translate(0.000000, 0.625000)">
                    <mask id="mask-4" fill="white">
                        <use xlink:href="#path-3"></use>
                    </mask>
                    <g id="Clip-7"></g>
                    <polygon id="Fill-6" fill="#FFFFFF" mask="url(#mask-4)" points="-3.125 7.968125 12.143125 7.968125 12.143125 -2.634375 -3.125 -2.634375"></polygon>
                </g>
                <path d="M2.8360625,6.28 L1.2291875,6.376875 C1.0829375,6.385625 0.9716875,6.51 0.9804375,6.655625 L1.5504375,16.263125 C1.5598125,16.408125 1.6854375,16.51875 1.8316875,16.51 L3.4385625,16.413125 C3.5841875,16.404375 3.6960625,16.279375 3.6866875,16.134375 L3.1166875,6.526875 C3.1079375,6.381875 2.9823125,6.27125 2.8360625,6.28" id="Fill-9" fill="#FFFFFF"></path>
                <g id="Group-13" transform="translate(0.625000, 6.250000)">
                    <mask id="mask-6" fill="white">
                        <use xlink:href="#path-5"></use>
                    </mask>
                    <g id="Clip-12"></g>
                    <polygon id="Fill-11" fill="#FFFFFF" mask="url(#mask-6)" points="-155.625 295.625 744.375 295.625 744.375 -344.375 -155.625 -344.375"></polygon>
                </g>
                <g id="Group-16" transform="translate(0.625000, 6.250000)">
                    <mask id="mask-8" fill="white">
                        <use xlink:href="#path-7"></use>
                    </mask>
                    <g id="Clip-15"></g>
                    <polygon id="Fill-14" fill="#FFFFFF" mask="url(#mask-8)" points="-2.77 13.385 6.1875 13.385 6.1875 -3.095625 -2.77 -3.095625"></polygon>
                </g>
                <path d="M5.7620625,6.5913125 L5.2314375,16.0875625 C5.2233125,16.2325625 5.3345625,16.3569375 5.4808125,16.3656875 L7.0883125,16.4563125 C7.2345625,16.4650625 7.3595625,16.3538125 7.3683125,16.2081875 L7.8989375,6.7119375 C7.9070625,6.5669375 7.7951875,6.4425625 7.6495625,6.4344375 L6.0420625,6.3438125 C5.8958125,6.3350625 5.7701875,6.4463125 5.7620625,6.5913125" id="Fill-17" fill="#FFFFFF"></path>
                <g id="Group-21" transform="translate(5.000000, 6.250000)">
                    <mask id="mask-10" fill="white">
                        <use xlink:href="#path-9"></use>
                    </mask>
                    <g id="Clip-20"></g>
                    <polygon id="Fill-19" fill="#FFFFFF" mask="url(#mask-10)" points="-160 295.625 740 295.625 740 -344.375 -160 -344.375"></polygon>
                </g>
                <g id="Group-24" transform="translate(5.000000, 6.250000)">
                    <mask id="mask-12" fill="white">
                        <use xlink:href="#path-11"></use>
                    </mask>
                    <g id="Clip-23"></g>
                    <polygon id="Fill-22" fill="#FFFFFF" mask="url(#mask-12)" points="-2.89375 13.331875 6.024375 13.331875 6.024375 -3.031875 -2.89375 -3.031875"></polygon>
                </g>
                <path d="M0.265125,19.0429375 L8.082625,19.0429375 C8.522,19.0429375 8.87825,18.6891875 8.87825,18.2529375 L8.87825,17.1804375 C8.87825,17.0354375 8.7595,16.9173125 8.61325,16.9173125 L0.795125,16.9173125 C0.35575,16.9173125 0.000125,17.2704375 0.000125,17.7066875 L0.000125,18.7798125 C0.000125,18.9254375 0.118875,19.0429375 0.265125,19.0429375" id="Fill-25" fill="#FFFFFF"></path>
                <g id="Group-30" transform="translate(0.000000, 16.875000)">
                    <mask id="mask-14" fill="white">
                        <use xlink:href="#path-13"></use>
                    </mask>
                    <g id="Clip-28"></g>
                    <polygon id="Fill-27" fill="#FFFFFF" mask="url(#mask-14)" points="-155 285 745 285 745 -355 -155 -355"></polygon>
                    <polygon id="Fill-29" fill="#FFFFFF" mask="url(#mask-14)" points="-3.125 5.2925 12.003125 5.2925 12.003125 -3.083125 -3.125 -3.083125"></polygon>
                </g>
                <path d="M17.31375,17.372625 L12.0975,17.372625 C11.95125,17.372625 11.8325,17.255125 11.8325,17.1095 L11.8325,11.916375 C11.8325,11.77075 11.95125,11.65325 12.0975,11.65325 L17.31375,11.65325 C17.46,11.65325 17.57875,11.77075 17.57875,11.916375 L17.57875,17.1095 C17.57875,17.255125 17.46,17.372625 17.31375,17.372625 M14.65875,0.847 L13.57875,0.847 C13.4325,0.847 13.31375,0.965125 13.31375,1.110125 L13.31375,9.263875 C13.31375,9.4095 13.195625,9.527625 13.04875,9.527625 L11.283125,9.527625 C10.405,9.527625 9.6925,10.235125 9.6925,11.107 L9.6925,19.235125 C9.6925,19.380125 9.81125,19.49825 9.9575,19.49825 L18.128125,19.49825 C19.006875,19.49825 19.719375,18.79075 19.719375,17.91825 L19.719375,9.79075 C19.719375,9.645125 19.600625,9.527625 19.45375,9.527625 L15.719375,9.527625 C15.5725,9.527625 15.454375,9.4095 15.454375,9.263875 L15.454375,5.842625 C15.454375,5.697625 15.5725,5.5795 15.719375,5.5795 L19.0325,5.5795 C19.471875,5.5795 19.8275,5.22575 19.8275,4.7895 L19.8275,3.717 C19.8275,3.571375 19.709375,3.453875 19.5625,3.453875 L15.719375,3.453875 C15.5725,3.453875 15.454375,3.33575 15.454375,3.19075 L15.454375,1.637625 C15.454375,1.20075 15.098125,0.847 14.65875,0.847" id="Fill-31" fill="#FFFFFF"></path>
                <g id="Group-36" transform="translate(9.375000, 0.625000)">
                    <mask id="mask-16" fill="white">
                        <use xlink:href="#path-15"></use>
                    </mask>
                    <g id="Clip-34"></g>
                    <polygon id="Fill-33" fill="#FFFFFF" mask="url(#mask-16)" points="-164.375 301.25 735.625 301.25 735.625 -338.75 -164.375 -338.75"></polygon>
                    <polygon id="Fill-35" fill="#FFFFFF" mask="url(#mask-16)" points="-2.8075 21.998125 13.5775 21.998125 13.5775 -2.903125 -2.8075 -2.903125"></polygon>
                </g>
                <path d="M27.237375,5.63025 L26.543625,5.63025 C26.39675,5.63025 26.278625,5.51275 26.278625,5.367125 L26.278625,3.909 C26.278625,3.764 26.39675,3.645875 26.543625,3.645875 L27.237375,3.645875 C27.383625,3.645875 27.502375,3.764 27.502375,3.909 L27.502375,5.367125 C27.502375,5.51275 27.383625,5.63025 27.237375,5.63025 L27.237375,5.63025 Z M29.293,12.089 L29.088,12.089 C28.94175,12.089 28.822375,11.9715 28.822375,11.825875 L28.822375,8.019625 C28.822375,7.874 28.94175,7.755875 29.088,7.755875 L29.293,7.755875 C29.439875,7.755875 29.558,7.874 29.558,8.019625 L29.558,11.825875 C29.558,11.9715 29.439875,12.089 29.293,12.089 L29.293,12.089 Z M24.3155,17.16025 L24.3155,16.624 C24.3155,16.478375 24.43425,16.36025 24.5805,16.36025 L29.293,16.36025 C29.439875,16.36025 29.558,16.478375 29.558,16.624 L29.558,17.16025 C29.558,17.30525 29.439875,17.423375 29.293,17.423375 L24.5805,17.423375 C24.43425,17.423375 24.3155,17.30525 24.3155,17.16025 L24.3155,17.16025 Z M24.786125,7.755875 C24.932375,7.755875 25.051125,7.874 25.051125,8.019625 L25.05175,12.165875 C25.05175,12.19025 25.0555,12.70025 24.638625,13.27775 C24.559875,13.38775 24.577375,13.539625 24.6805,13.628375 L25.437375,14.28025 C25.554875,14.380875 25.733625,14.359625 25.82675,14.2365 C26.568,13.258375 26.584875,12.32275 26.579875,12.1265 L26.579875,8.019625 C26.579875,7.874 26.698625,7.755875 26.844875,7.755875 L27.02925,7.755875 C27.1755,7.755875 27.29425,7.874 27.29425,8.019625 L27.29425,13.344 C27.29425,13.489625 27.413,13.60775 27.55925,13.60775 L29.293,13.60775 C29.439875,13.60775 29.558,13.72525 29.558,13.870875 L29.558,14.49775 C29.558,14.643375 29.439875,14.7615 29.293,14.7615 L24.5805,14.7615 C24.43425,14.7615 24.3155,14.643375 24.3155,14.49775 L24.3155,8.019625 C24.3155,7.874 24.43425,7.755875 24.5805,7.755875 L24.786125,7.755875 Z M22.436125,3.645875 L23.873,3.645875 C24.01925,3.645875 24.138,3.764 24.138,3.909 L24.138,5.367125 C24.138,5.51275 24.01925,5.63025 23.873,5.63025 L22.436125,5.63025 C22.28925,5.63025 22.1705,5.74775 22.1705,5.893375 L22.1705,7.755875 L22.1755,7.755875 L22.1755,17.423375 L22.1705,17.423375 L22.1705,19.285875 C22.1705,19.4315 22.28925,19.549 22.436125,19.549 L31.438,19.549 C31.58425,19.549 31.703625,19.4315 31.703625,19.285875 L31.703625,17.423375 L31.698625,17.423375 L31.698625,7.755875 L31.703625,7.755875 L31.703625,5.893375 C31.703625,5.74775 31.58425,5.63025 31.438,5.63025 L29.908,5.63025 C29.761125,5.63025 29.643,5.51275 29.643,5.367125 L29.643,3.909 C29.643,3.764 29.761125,3.645875 29.908,3.645875 L30.908,3.645875 C31.347375,3.645875 31.703625,3.292125 31.703625,2.855875 L31.703625,1.783375 C31.703625,1.63775 31.58425,1.52025 31.438,1.52025 L22.966125,1.52025 C22.52675,1.52025 22.1705,1.874 22.1705,2.31025 L22.1705,3.38275 C22.1705,3.52775 22.28925,3.645875 22.436125,3.645875 L22.436125,3.645875 Z" id="Fill-37" fill="#FFFFFF"></path>
                <g id="Group-41" transform="translate(21.875000, 1.250000)">
                    <mask id="mask-18" fill="white">
                        <use xlink:href="#path-17"></use>
                    </mask>
                    <g id="Clip-40"></g>
                    <polygon id="Fill-39" fill="#FFFFFF" mask="url(#mask-18)" points="-176.875 300.625 723.125 300.625 723.125 -339.375 -176.875 -339.375"></polygon>
                </g>
                <g id="Group-44" transform="translate(21.875000, 1.250000)">
                    <mask id="mask-20" fill="white">
                        <use xlink:href="#path-19"></use>
                    </mask>
                    <g id="Clip-43"></g>
                    <polygon id="Fill-42" fill="#FFFFFF" mask="url(#mask-20)" points="-2.829375 21.42375 12.953125 21.42375 12.953125 -2.855 -2.829375 -2.855"></polygon>
                </g>
                <path d="M39.59325,17.3323125 L35.167625,17.3323125 C35.021375,17.3323125 34.902625,17.2148125 34.902625,17.0691875 L34.902625,13.6779375 C34.902625,13.5323125 35.021375,13.4148125 35.167625,13.4148125 L39.59325,13.4148125 C39.7395,13.4148125 39.85825,13.5323125 39.85825,13.6779375 L39.85825,17.0691875 C39.85825,17.2148125 39.7395,17.3323125 39.59325,17.3323125 L39.59325,17.3323125 Z M34.902625,11.2885625 L34.336375,11.2885625 C34.336375,11.2885625 32.762625,11.0354375 32.762625,12.8523125 L32.762625,19.1948125 C32.762625,19.3398125 32.88075,19.4579375 33.027625,19.4579375 L33.80575,19.4579375 L34.902625,19.4579375 L39.85825,19.4579375 L40.407625,19.4579375 C41.286375,19.4579375 41.998875,18.7504375 41.998875,17.8779375 L41.998875,17.3323125 L41.998875,13.4148125 L41.998875,11.5523125 C41.998875,11.4066875 41.880125,11.2885625 41.73325,11.2885625 L39.85825,11.2885625 L34.902625,11.2885625 Z" id="Fill-45" fill="#FFFFFF"></path>
                <g id="Group-49" transform="translate(32.500000, 11.250000)">
                    <mask id="mask-22" fill="white">
                        <use xlink:href="#path-21"></use>
                    </mask>
                    <g id="Clip-48"></g>
                    <polygon id="Fill-47" fill="#FFFFFF" mask="url(#mask-22)" points="-187.5 290.625 712.5 290.625 712.5 -349.375 -187.5 -349.375"></polygon>
                </g>
                <g id="Group-52" transform="translate(32.500000, 11.250000)">
                    <mask id="mask-24" fill="white">
                        <use xlink:href="#path-23"></use>
                    </mask>
                    <g id="Clip-51"></g>
                    <polygon id="Fill-50" fill="#FFFFFF" mask="url(#mask-24)" points="-2.8625 11.333125 12.62375 11.333125 12.62375 -3.098125 -2.8625 -3.098125"></polygon>
                </g>
                <path d="M38.8795,5.0229375 L41.18825,5.0229375 C41.627,5.0229375 41.983875,4.6691875 41.983875,4.2329375 L41.983875,3.1604375 C41.983875,3.0154375 41.8645,2.8973125 41.71825,2.8973125 L38.8795,2.8973125 C38.73325,2.8973125 38.6145,2.7791875 38.6145,2.6335625 L38.6145,1.1360625 C38.6145,0.9904375 38.49575,0.8723125 38.3495,0.8723125 L36.7395,0.8723125 C36.592625,0.8723125 36.473875,0.9904375 36.473875,1.1360625 L36.473875,2.6335625 C36.473875,2.7791875 36.35575,2.8973125 36.208875,2.8973125 L35.317625,2.8973125 C35.1645,2.8973125 35.04325,2.7666875 35.05325,2.6148125 C35.065125,2.4473125 35.0745,2.2948125 35.081375,2.1579375 C35.10575,1.7054375 34.74325,1.3279375 34.287,1.3279375 L33.228875,1.3279375 C33.086375,1.3279375 32.968875,1.4391875 32.9645,1.5810625 C32.943875,2.2529375 32.841375,4.2079375 32.338875,6.8366875 C32.312,6.9791875 32.4045,7.1179375 32.547625,7.1460625 L33.60075,7.3516875 C34.037,7.4366875 34.460125,7.1498125 34.537,6.7154375 C34.6295,6.1973125 34.707625,5.7060625 34.772625,5.2479375 C34.79075,5.1179375 34.902,5.0229375 35.0345,5.0229375 L36.208875,5.0229375 C36.35575,5.0229375 36.473875,5.1404375 36.473875,5.2860625 L36.473875,7.8979375 C36.473875,8.0429375 36.35575,8.1610625 36.208875,8.1610625 L33.4495,8.1610625 C33.010125,8.1610625 32.653875,8.5148125 32.653875,8.9510625 L32.653875,10.0235625 C32.653875,10.1685625 32.772625,10.2866875 32.918875,10.2866875 L41.297,10.2866875 C41.736375,10.2866875 42.092,9.9329375 42.092,9.4966875 L42.092,8.4241875 C42.092,8.2785625 41.973875,8.1610625 41.827,8.1610625 L38.8795,8.1610625 C38.73325,8.1610625 38.6145,8.0429375 38.6145,7.8979375 L38.6145,5.2860625 C38.6145,5.1404375 38.73325,5.0229375 38.8795,5.0229375" id="Fill-53" fill="#FFFFFF"></path>
                <g id="Group-58" transform="translate(31.875000, 0.625000)">
                    <mask id="mask-26" fill="white">
                        <use xlink:href="#path-25"></use>
                    </mask>
                    <g id="Clip-56"></g>
                    <polygon id="Fill-55" fill="#FFFFFF" mask="url(#mask-26)" points="-186.875 301.25 713.125 301.25 713.125 -338.75 -186.875 -338.75"></polygon>
                    <polygon id="Fill-57" fill="#FFFFFF" mask="url(#mask-26)" points="-2.665625 12.786875 13.3425 12.786875 13.3425 -2.8775 -2.665625 -2.8775"></polygon>
                </g>
                <path d="M69.83525,5.550375 L70.717125,4.96225 C71.0965,4.709125 71.1815,4.191625 70.90775,3.8285 C69.898375,2.48725 68.892125,1.56725 68.4665,1.201625 C68.35275,1.104125 68.180875,1.121625 68.08775,1.2385 L67.3915,2.106625 C67.13525,2.426 67.16525,2.887875 67.463375,3.1685 C67.96275,3.63975 68.7365,4.439125 69.469625,5.47975 C69.55275,5.597875 69.714625,5.631 69.83525,5.550375" id="Fill-59" fill="#FFFFFF"></path>
                <g id="Group-63" transform="translate(66.875000, 0.625000)">
                    <mask id="mask-28" fill="white">
                        <use xlink:href="#path-27"></use>
                    </mask>
                    <g id="Clip-62"></g>
                    <polygon id="Fill-61" fill="#FFFFFF" mask="url(#mask-28)" points="-221.875 301.25 678.125 301.25 678.125 -338.75 -221.875 -338.75"></polygon>
                </g>
                <g id="Group-66" transform="translate(66.875000, 0.625000)">
                    <mask id="mask-30" fill="white">
                        <use xlink:href="#path-29"></use>
                    </mask>
                    <g id="Clip-65"></g>
                    <polygon id="Fill-64" fill="#FFFFFF" mask="url(#mask-30)" points="-2.7825 8.094375 7.3175 8.094375 7.3175 -2.611875 -2.7825 -2.611875"></polygon>
                </g>
                <path d="M68.1820625,6.538875 L67.4395625,7.331375 C67.1458125,7.64575 67.1558125,8.133875 67.4651875,8.433875 C68.0701875,9.020125 69.0789375,10.027 70.0389375,11.117625 C70.1351875,11.227 70.3014375,11.2395 70.4120625,11.145125 L71.2245625,10.45075 C71.5633125,10.16075 71.5945625,9.652 71.2964375,9.322 C70.1364375,8.0395 69.0033125,6.94825 68.5583125,6.527625 C68.4514375,6.426375 68.2826875,6.431375 68.1820625,6.538875" id="Fill-67" fill="#FFFFFF"></path>
                <g id="Group-71" transform="translate(66.875000, 6.250000)">
                    <mask id="mask-32" fill="white">
                        <use xlink:href="#path-31"></use>
                    </mask>
                    <g id="Clip-70"></g>
                    <polygon id="Fill-69" fill="#FFFFFF" mask="url(#mask-32)" points="-221.875 295.625 678.125 295.625 678.125 -344.375 -221.875 -344.375"></polygon>
                </g>
                <g id="Group-74" transform="translate(66.875000, 6.250000)">
                    <mask id="mask-34" fill="white">
                        <use xlink:href="#path-33"></use>
                    </mask>
                    <g id="Clip-73"></g>
                    <polygon id="Fill-72" fill="#FFFFFF" mask="url(#mask-34)" points="-2.774375 8.08375 7.750625 8.08375 7.750625 -2.92 -2.774375 -2.92"></polygon>
                </g>
                <path d="M67.03075,18.8659375 L67.950125,19.3990625 C68.340125,19.6246875 68.8445,19.4840625 69.055125,19.0871875 C70.52325,16.3190625 71.118875,13.5965625 71.280125,12.7446875 C71.30825,12.5978125 71.2095,12.4590625 71.06075,12.4365625 L69.965125,12.2659375 C69.55075,12.2009375 69.15825,12.4659375 69.066375,12.8728125 C68.8095,14.0078125 68.18325,16.3046875 66.935125,18.5090625 C66.863875,18.6346875 66.905125,18.7934375 67.03075,18.8659375" id="Fill-75" fill="#FFFFFF"></path>
                <g id="Group-79" transform="translate(66.875000, 11.875000)">
                    <mask id="mask-36" fill="white">
                        <use xlink:href="#path-35"></use>
                    </mask>
                    <g id="Clip-78"></g>
                    <polygon id="Fill-77" fill="#FFFFFF" mask="url(#mask-36)" points="-221.875 290 678.125 290 678.125 -350 -221.875 -350"></polygon>
                </g>
                <g id="Group-82" transform="translate(66.875000, 11.875000)">
                    <mask id="mask-38" fill="white">
                        <use xlink:href="#path-37"></use>
                    </mask>
                    <g id="Clip-81"></g>
                    <polygon id="Fill-80" fill="#FFFFFF" mask="url(#mask-38)" points="-3.099375 10.756875 7.535 10.756875 7.535 -2.74375 -3.099375 -2.74375"></polygon>
                </g>
                <path d="M74.796875,17.069 L74.796875,13.9915 C74.796875,13.8465 74.915625,13.728375 75.061875,13.728375 L83.56875,13.728375 C83.715,13.728375 83.834375,13.8465 83.834375,13.9915 L83.834375,17.069 C83.834375,17.214625 83.715,17.332125 83.56875,17.332125 L75.061875,17.332125 C74.915625,17.332125 74.796875,17.214625 74.796875,17.069 L74.796875,17.069 Z M83.834375,11.60275 L74.796875,11.60275 L74.36375,11.60275 L74.2475,11.60275 C73.36875,11.60275 72.656875,12.31025 72.656875,13.182125 L72.656875,19.397125 L72.70125,19.397125 L72.70125,19.458375 L84.38375,19.458375 C85.261875,19.458375 85.974375,18.750875 85.974375,17.87775 L85.974375,17.332125 L85.974375,11.865875 C85.974375,11.72025 85.855625,11.60275 85.709375,11.60275 L84.71375,11.60275 L83.834375,11.60275 Z" id="Fill-83" fill="#FFFFFF"></path>
                <g id="Group-88" transform="translate(72.500000, 11.250000)">
                    <mask id="mask-40" fill="white">
                        <use xlink:href="#path-39"></use>
                    </mask>
                    <g id="Clip-86"></g>
                    <polygon id="Fill-85" fill="#FFFFFF" mask="url(#mask-40)" points="-227.5 290.625 672.5 290.625 672.5 -349.375 -227.5 -349.375"></polygon>
                    <polygon id="Fill-87" fill="#FFFFFF" mask="url(#mask-40)" points="-2.96875 11.333125 16.599375 11.333125 16.599375 -2.7725 -2.96875 -2.7725"></polygon>
                </g>
                <path d="M75.0490625,4.7474375 C75.2003125,4.5455625 75.3446875,4.3455625 75.4821875,4.1480625 C75.5315625,4.0774375 75.6115625,4.0361875 75.6984375,4.0361875 L82.0515625,4.0361875 C82.2721875,4.0361875 82.3984375,4.2861875 82.2634375,4.4593125 C81.6921875,5.1868125 80.7165625,6.1655625 79.1553125,7.0418125 C79.0828125,7.0818125 78.9921875,7.0868125 78.9159375,7.0549375 C77.2821875,6.3624375 75.9653125,5.6374375 75.1209375,5.1305625 C74.9865625,5.0499375 74.9553125,4.8724375 75.0490625,4.7474375 M82.0528125,8.1755625 C81.8478125,8.1155625 81.7984375,7.8486875 81.9665625,7.7174375 C84.1353125,6.0168125 84.8759375,4.3224375 84.9309375,4.1911875 L85.0128125,3.9955625 L85.0128125,2.6999375 C85.0128125,2.2636875 84.6565625,1.9099375 84.2178125,1.9099375 L77.3078125,1.9099375 C77.1090625,1.9099375 76.9821875,1.6999375 77.0728125,1.5249375 C77.0828125,1.5061875 77.0921875,1.4880625 77.1009375,1.4711875 C77.1684375,1.3393125 77.1128125,1.1780625 76.9784375,1.1143125 L75.5253125,0.4236875 C75.3959375,0.3624375 75.2415625,0.4124375 75.1759375,0.5393125 C74.7846875,1.2918125 73.4284375,3.7536875 71.6109375,5.4161875 C71.5046875,5.5136875 71.4934375,5.6749375 71.5884375,5.7830625 L72.4121875,6.7211875 C72.6415625,6.9830625 73.0459375,6.9993125 73.2965625,6.7568125 L73.3034375,6.7505625 C73.3896875,6.6674375 73.5209375,6.6511875 73.6234375,6.7155625 C74.1259375,7.0311875 74.8490625,7.4605625 75.7528125,7.9299375 C75.9684375,8.0411875 75.9384375,8.3586875 75.7040625,8.4218125 C74.7184375,8.6886875 73.6078125,8.8986875 72.3559375,9.0255625 C72.2115625,9.0405625 72.1040625,9.1668125 72.1171875,9.3105625 L72.2146875,10.3680625 C72.2553125,10.8118125 72.6590625,11.1355625 73.1040625,11.0811875 C75.5140625,10.7868125 77.4609375,10.1993125 79.0259375,9.4861875 C79.0871875,9.4580625 79.1546875,9.4555625 79.2171875,9.4793125 C81.1765625,10.2186875 83.4746875,10.8586875 85.9471875,11.1036875 C86.3971875,11.1486875 86.7959375,10.8136875 86.8240625,10.3655625 L86.8903125,9.3080625 C86.8990625,9.1643125 86.7896875,9.0418125 86.6453125,9.0311875 C85.0315625,8.9093125 83.4809375,8.5905625 82.0528125,8.1755625" id="Fill-89" fill="#FFFFFF"></path>
                <g id="Group-93" transform="translate(71.250000, 0.000000)">
                    <mask id="mask-42" fill="white">
                        <use xlink:href="#path-41"></use>
                    </mask>
                    <g id="Clip-92"></g>
                    <polygon id="Fill-91" fill="#FFFFFF" mask="url(#mask-42)" points="0 11.25 16.25 11.25 16.25 0 0 0"></polygon>
                </g>
                <g id="Group-96" transform="translate(71.250000, 0.000000)">
                    <mask id="mask-44" fill="white">
                        <use xlink:href="#path-43"></use>
                    </mask>
                    <g id="Clip-95"></g>
                    <polygon id="Fill-94" fill="#FFFFFF" mask="url(#mask-44)" points="-2.85125 14.2325 18.765625 14.2325 18.765625 -2.7275 -2.85125 -2.7275"></polygon>
                </g>
                <path d="M47.1960625,5.550375 L48.0779375,4.96225 C48.4573125,4.709125 48.5423125,4.191625 48.2685625,3.8285 C47.2591875,2.487875 46.2535625,1.56725 45.8279375,1.20225 C45.7135625,1.104125 45.5416875,1.121625 45.4485625,1.239125 L44.7535625,2.10725 C44.4979375,2.42725 44.5279375,2.8885 44.8260625,3.169125 C45.3235625,3.63725 46.0941875,4.432875 46.8304375,5.47975 C46.9135625,5.597875 47.0754375,5.631 47.1960625,5.550375" id="Fill-97" fill="#FFFFFF"></path>
                <g id="Group-101" transform="translate(44.375000, 0.625000)">
                    <mask id="mask-46" fill="white">
                        <use xlink:href="#path-45"></use>
                    </mask>
                    <g id="Clip-100"></g>
                    <polygon id="Fill-99" fill="#FFFFFF" mask="url(#mask-46)" points="-199.375 301.25 700.625 301.25 700.625 -338.75 -199.375 -338.75"></polygon>
                </g>
                <g id="Group-104" transform="translate(44.375000, 0.625000)">
                    <mask id="mask-48" fill="white">
                        <use xlink:href="#path-47"></use>
                    </mask>
                    <g id="Clip-103"></g>
                    <polygon id="Fill-102" fill="#FFFFFF" mask="url(#mask-48)" points="-2.919375 8.095 7.179375 8.095 7.179375 -2.61125 -2.919375 -2.61125"></polygon>
                </g>
                <path d="M45.5429375,6.538875 L44.8004375,7.332 C44.5060625,7.64575 44.5166875,8.133875 44.8260625,8.433875 C45.4310625,9.020125 46.4391875,10.027 47.3998125,11.11825 C47.4960625,11.227 47.6623125,11.2395 47.7729375,11.145125 L48.5854375,10.45075 C48.9241875,10.16075 48.9554375,9.652 48.6573125,9.322 C47.4973125,8.040125 46.3641875,6.947625 45.9191875,6.527625 C45.8123125,6.426375 45.6435625,6.431375 45.5429375,6.538875" id="Fill-105" fill="#FFFFFF"></path>
                <g id="Group-109" transform="translate(44.375000, 6.250000)">
                    <mask id="mask-50" fill="white">
                        <use xlink:href="#path-49"></use>
                    </mask>
                    <g id="Clip-108"></g>
                    <polygon id="Fill-107" fill="#FFFFFF" mask="url(#mask-50)" points="-199.375 295.625 700.625 295.625 700.625 -344.375 -199.375 -344.375"></polygon>
                </g>
                <g id="Group-112" transform="translate(44.375000, 6.250000)">
                    <mask id="mask-52" fill="white">
                        <use xlink:href="#path-51"></use>
                    </mask>
                    <g id="Clip-111"></g>
                    <polygon id="Fill-110" fill="#FFFFFF" mask="url(#mask-52)" points="-2.913125 8.08375 7.611875 8.08375 7.611875 -2.92 -2.913125 -2.92"></polygon>
                </g>
                <path d="M44.3915625,18.8659375 L45.3109375,19.3990625 C45.7009375,19.6246875 46.2053125,19.4840625 46.4159375,19.0871875 C47.8840625,16.3190625 48.4796875,13.5965625 48.6409375,12.7446875 C48.6690625,12.5978125 48.5703125,12.4590625 48.4215625,12.4365625 L47.3265625,12.2659375 C46.9115625,12.2009375 46.5196875,12.4665625 46.4271875,12.8728125 C46.1709375,14.0078125 45.5440625,16.3046875 44.2959375,18.5090625 C44.2246875,18.6346875 44.2659375,18.7934375 44.3915625,18.8659375" id="Fill-113" fill="#FFFFFF"></path>
                <g id="Group-117" transform="translate(43.750000, 11.875000)">
                    <mask id="mask-54" fill="white">
                        <use xlink:href="#path-53"></use>
                    </mask>
                    <g id="Clip-116"></g>
                    <polygon id="Fill-115" fill="#FFFFFF" mask="url(#mask-54)" points="-198.75 290 701.25 290 701.25 -350 -198.75 -350"></polygon>
                </g>
                <g id="Group-120" transform="translate(43.750000, 11.875000)">
                    <mask id="mask-56" fill="white">
                        <use xlink:href="#path-55"></use>
                    </mask>
                    <g id="Clip-119"></g>
                    <polygon id="Fill-118" fill="#FFFFFF" mask="url(#mask-56)" points="-2.61375 10.756875 8.020625 10.756875 8.020625 -2.74375 -2.61375 -2.74375"></polygon>
                </g>
                <path d="M56.2948125,15.5404375 C56.2948125,15.6860625 56.4135625,15.8035625 56.5598125,15.8035625 L58.1698125,15.8035625 C58.3160625,15.8035625 58.4348125,15.6860625 58.4348125,15.5404375 L58.4348125,9.4116875 C58.4348125,9.2660625 58.3160625,9.1479375 58.1698125,9.1479375 L56.5598125,9.1479375 C56.4135625,9.1479375 56.2948125,9.2660625 56.2948125,9.4116875 L56.2948125,15.5404375 Z" id="Fill-121" fill="#FFFFFF"></path>
                <g id="Group-126" transform="translate(56.250000, 8.750000)">
                    <mask id="mask-58" fill="white">
                        <use xlink:href="#path-57"></use>
                    </mask>
                    <g id="Clip-124"></g>
                    <polygon id="Fill-123" fill="#FFFFFF" mask="url(#mask-58)" points="-211.25 293.125 688.75 293.125 688.75 -346.875 -211.25 -346.875"></polygon>
                    <polygon id="Fill-125" fill="#FFFFFF" mask="url(#mask-58)" points="-3.08 10.17875 5.31 10.17875 5.31 -2.726875 -3.08 -2.726875"></polygon>
                </g>
                <path d="M51.8224375,4.0715 L63.3586875,4.0715 C63.7980625,4.0715 64.1536875,3.71775 64.1536875,3.2815 L64.1536875,2.209 C64.1536875,2.063375 64.0355625,1.945875 63.8886875,1.945875 L52.3068125,1.945875 C52.1468125,1.945875 52.0224375,1.804625 52.0443125,1.647125 C52.0618125,1.519625 52.0761875,1.40775 52.0874375,1.314625 C52.1055625,1.169 51.9999375,1.037125 51.8530625,1.02025 L50.7674375,0.9015 C50.3405625,0.85525 49.9536875,1.152125 49.8930625,1.574625 C49.7605625,2.504625 49.5261875,3.83775 49.2361875,4.62525 C49.1886875,4.754625 49.2499375,4.8965 49.3761875,4.95275 L50.3124375,5.372125 C50.7493125,5.56775 51.2643125,5.339625 51.4005625,4.883375 C51.4586875,4.68775 51.5136875,4.483375 51.5649375,4.274 C51.5936875,4.15525 51.6999375,4.0715 51.8224375,4.0715" id="Fill-127" fill="#FFFFFF"></path>
                <g id="Group-131" transform="translate(48.750000, 0.625000)">
                    <mask id="mask-60" fill="white">
                        <use xlink:href="#path-59"></use>
                    </mask>
                    <g id="Clip-130"></g>
                    <polygon id="Fill-129" fill="#FFFFFF" mask="url(#mask-60)" points="-203.75 301.25 696.25 301.25 696.25 -338.75 -203.75 -338.75"></polygon>
                </g>
                <g id="Group-134" transform="translate(48.750000, 0.625000)">
                    <mask id="mask-62" fill="white">
                        <use xlink:href="#path-61"></use>
                    </mask>
                    <g id="Clip-133"></g>
                    <polygon id="Fill-132" fill="#FFFFFF" mask="url(#mask-62)" points="-2.655 7.9425 18.52875 7.9425 18.52875 -2.853125 -2.655 -2.853125"></polygon>
                </g>
                <path d="M63.723,11.349625 C63.57675,11.349625 63.458,11.232125 63.458,11.0865 L63.458,7.640875 L63.458,7.09525 C63.458,6.22275 62.7455,5.51525 61.86675,5.51525 L61.317375,5.51525 L53.281125,5.51525 L52.73175,5.51525 C51.853,5.51525 51.1405,6.22275 51.1405,7.09525 L51.1405,11.0865 C51.1405,11.232125 51.022375,11.349625 50.8755,11.349625 L50.113,11.349625 C49.966125,11.349625 49.848,11.467125 49.848,11.61275 L49.848,13.212125 C49.848,13.357125 49.966125,13.47525 50.113,13.47525 L50.8755,13.47525 C51.022375,13.47525 51.1405,13.593375 51.1405,13.739 L51.1405,17.2565 L51.1405,17.802125 C51.1405,18.67525 51.853,19.382125 52.73175,19.382125 L60.283625,19.382125 C60.038,18.998375 59.893,18.544 59.893,18.055875 C59.893,17.775875 59.942375,17.50775 60.028625,17.2565 L53.81175,17.2565 C53.518625,17.2565 53.281125,17.02025 53.281125,16.729625 L53.281125,8.16775 C53.281125,7.8765 53.518625,7.640875 53.81175,7.640875 L60.787375,7.640875 C61.079875,7.640875 61.317375,7.8765 61.317375,8.16775 L61.317375,15.82025 C61.642375,15.667125 62.00425,15.578375 62.387375,15.578375 C62.771125,15.578375 63.133,15.667125 63.458,15.82025 L63.458,13.739 C63.458,13.593375 63.57675,13.47525 63.723,13.47525 L64.61675,13.47525 C64.763,13.47525 64.882375,13.357125 64.882375,13.212125 L64.882375,11.61275 C64.882375,11.467125 64.763,11.349625 64.61675,11.349625 L63.723,11.349625 Z" id="Fill-135" fill="#FFFFFF"></path>
                <g id="Group-140" transform="translate(49.375000, 5.000000)">
                    <mask id="mask-64" fill="white">
                        <use xlink:href="#path-63"></use>
                    </mask>
                    <g id="Clip-138"></g>
                    <polygon id="Fill-137" fill="#FFFFFF" mask="url(#mask-64)" points="-204.375 296.875 695.625 296.875 695.625 -343.125 -204.375 -343.125"></polygon>
                    <polygon id="Fill-139" fill="#FFFFFF" mask="url(#mask-64)" points="-2.651875 17.5075 18.6325 17.5075 18.6325 -2.609375 -2.651875 -2.609375"></polygon>
                </g>
                <path d="M64.154125,18.0558125 C64.154125,19.0220625 63.365375,19.8051875 62.392875,19.8051875 C61.41975,19.8051875 60.631,19.0220625 60.631,18.0558125 C60.631,17.0895625 61.41975,16.3064375 62.392875,16.3064375 C63.365375,16.3064375 64.154125,17.0895625 64.154125,18.0558125" id="Fill-141" fill="#FFFFFF"></path>
                <g id="Group-146" transform="translate(60.625000, 16.250000)">
                    <mask id="mask-66" fill="white">
                        <use xlink:href="#path-65"></use>
                    </mask>
                    <g id="Clip-144"></g>
                    <polygon id="Fill-143" fill="#FFFFFF" mask="url(#mask-66)" points="-215.625 285.625 684.375 285.625 684.375 -354.375 -215.625 -354.375"></polygon>
                    <polygon id="Fill-145" fill="#FFFFFF" mask="url(#mask-66)" points="-3.11875 6.680625 6.654375 6.680625 6.654375 -3.06875 -3.11875 -3.06875"></polygon>
                </g>
            </g>
        </g>
    </g>
</svg>